<svg width="1200" height="800" viewBox="0 0 1200 800" xmlns="http://www.w3.org/2000/svg">
    <defs>
        <linearGradient id="skyGradient" x1="0%" y1="0%" x2="0%" y2="100%">
            <stop offset="0%" style="stop-color:#87ceeb;stop-opacity:1" />
            <stop offset="70%" style="stop-color:#98d8e8;stop-opacity:1" />
            <stop offset="100%" style="stop-color:#f0f8ff;stop-opacity:1" />
        </linearGradient>
        <linearGradient id="groundGradient" x1="0%" y1="0%" x2="0%" y2="100%">
            <stop offset="0%" style="stop-color:#90ee90;stop-opacity:1" />
            <stop offset="50%" style="stop-color:#7ccc7c;stop-opacity:1" />
            <stop offset="100%" style="stop-color:#6b8e23;stop-opacity:1" />
        </linearGradient>
        <radialGradient id="sunGradient" cx="50%" cy="50%" r="50%">
            <stop offset="0%" style="stop-color:#ffd700;stop-opacity:1" />
            <stop offset="70%" style="stop-color:#ffed4e;stop-opacity:0.8" />
            <stop offset="100%" style="stop-color:#fff8dc;stop-opacity:0.3" />
        </radialGradient>
        <linearGradient id="cloudGradient" x1="0%" y1="0%" x2="100%" y2="100%">
            <stop offset="0%" style="stop-color:#ffffff;stop-opacity:0.9" />
            <stop offset="100%" style="stop-color:#f0f0f0;stop-opacity:0.7" />
        </linearGradient>
    </defs>
    
    <!-- Sky -->
    <rect width="1200" height="500" fill="url(#skyGradient)"/>
    
    <!-- Ground -->
    <rect y="500" width="1200" height="300" fill="url(#groundGradient)"/>
    
    <!-- Sun -->
    <circle cx="900" cy="120" r="80" fill="url(#sunGradient)"/>
    
    <!-- Sun rays -->
    <g class="sun-rays" opacity="0.6">
        <path d="M 900 20 L 900 80" stroke="#ffd700" stroke-width="4" stroke-linecap="round"/>
        <path d="M 900 160 L 900 220" stroke="#ffd700" stroke-width="4" stroke-linecap="round"/>
        <path d="M 800 120 L 860 120" stroke="#ffd700" stroke-width="4" stroke-linecap="round"/>
        <path d="M 940 120 L 1000 120" stroke="#ffd700" stroke-width="4" stroke-linecap="round"/>
        <path d="M 835 55 L 875 95" stroke="#ffd700" stroke-width="4" stroke-linecap="round"/>
        <path d="M 925 145 L 965 185" stroke="#ffd700" stroke-width="4" stroke-linecap="round"/>
        <path d="M 965 55 L 925 95" stroke="#ffd700" stroke-width="4" stroke-linecap="round"/>
        <path d="M 875 145 L 835 185" stroke="#ffd700" stroke-width="4" stroke-linecap="round"/>
    </g>
    
    <!-- Clouds -->
    <g class="clouds">
        <ellipse cx="200" cy="100" rx="40" ry="25" fill="url(#cloudGradient)"/>
        <ellipse cx="240" cy="90" rx="50" ry="30" fill="url(#cloudGradient)"/>
        <ellipse cx="280" cy="100" rx="35" ry="22" fill="url(#cloudGradient)"/>
        
        <ellipse cx="500" cy="150" rx="45" ry="28" fill="url(#cloudGradient)"/>
        <ellipse cx="540" cy="140" rx="55" ry="35" fill="url(#cloudGradient)"/>
        <ellipse cx="580" cy="150" rx="40" ry="25" fill="url(#cloudGradient)"/>
        
        <ellipse cx="1000" cy="180" rx="35" ry="20" fill="url(#cloudGradient)"/>
        <ellipse cx="1035" cy="170" rx="45" ry="25" fill="url(#cloudGradient)"/>
        <ellipse cx="1070" cy="180" rx="30" ry="18" fill="url(#cloudGradient)"/>
    </g>
    
    <!-- Distant mountains -->
    <g class="mountains" opacity="0.7">
        <path d="M 0 500 L 200 300 L 400 400 L 600 250 L 800 350 L 1000 200 L 1200 300 L 1200 500 Z" fill="#8b9dc3"/>
        <path d="M 0 500 L 150 350 L 350 450 L 550 300 L 750 400 L 950 250 L 1150 350 L 1200 500 Z" fill="#a0b5d8"/>
    </g>
    
    <!-- Trees -->
    <g class="trees">
        <!-- Tree 1 -->
        <rect x="95" y="420" width="10" height="80" fill="#8b4513"/>
        <circle cx="100" cy="420" r="35" fill="#228b22"/>
        <circle cx="85" cy="410" r="25" fill="#32cd32"/>
        <circle cx="115" cy="410" r="25" fill="#32cd32"/>
        
        <!-- Tree 2 -->
        <rect x="995" y="440" width="10" height="60" fill="#8b4513"/>
        <circle cx="1000" cy="440" r="30" fill="#228b22"/>
        <circle cx="985" cy="430" r="20" fill="#32cd32"/>
        <circle cx="1015" cy="430" r="20" fill="#32cd32"/>
        
        <!-- Tree 3 -->
        <rect x="1095" y="460" width="8" height="40" fill="#8b4513"/>
        <circle cx="1099" cy="460" r="25" fill="#228b22"/>
        <circle cx="1087" cy="450" r="18" fill="#32cd32"/>
        <circle cx="1111" cy="450" r="18" fill="#32cd32"/>
    </g>
    
    <!-- Flowers -->
    <g class="flowers">
        <circle cx="300" cy="520" r="3" fill="#ff69b4"/>
        <circle cx="310" cy="525" r="3" fill="#ff1493"/>
        <circle cx="320" cy="518" r="3" fill="#ff69b4"/>
        
        <circle cx="500" cy="530" r="3" fill="#ffd700"/>
        <circle cx="510" cy="535" r="3" fill="#ffb347"/>
        <circle cx="520" cy="528" r="3" fill="#ffd700"/>
        
        <circle cx="700" cy="525" r="3" fill="#9370db"/>
        <circle cx="710" cy="530" r="3" fill="#8a2be2"/>
        <circle cx="720" cy="523" r="3" fill="#9370db"/>
    </g>
    
    <!-- Grass details -->
    <g class="grass" opacity="0.8">
        <path d="M 50 520 Q 52 510 54 520" stroke="#228b22" stroke-width="1" fill="none"/>
        <path d="M 70 525 Q 72 515 74 525" stroke="#228b22" stroke-width="1" fill="none"/>
        <path d="M 90 518 Q 92 508 94 518" stroke="#228b22" stroke-width="1" fill="none"/>
        <path d="M 150 522 Q 152 512 154 522" stroke="#228b22" stroke-width="1" fill="none"/>
        <path d="M 200 520 Q 202 510 204 520" stroke="#228b22" stroke-width="1" fill="none"/>
        <path d="M 250 525 Q 252 515 254 525" stroke="#228b22" stroke-width="1" fill="none"/>
        <path d="M 400 518 Q 402 508 404 518" stroke="#228b22" stroke-width="1" fill="none"/>
        <path d="M 450 522 Q 452 512 454 522" stroke="#228b22" stroke-width="1" fill="none"/>
        <path d="M 600 520 Q 602 510 604 520" stroke="#228b22" stroke-width="1" fill="none"/>
        <path d="M 650 525 Q 652 515 654 525" stroke="#228b22" stroke-width="1" fill="none"/>
        <path d="M 800 518 Q 802 508 804 518" stroke="#228b22" stroke-width="1" fill="none"/>
        <path d="M 850 522 Q 852 512 854 522" stroke="#228b22" stroke-width="1" fill="none"/>
        <path d="M 950 520 Q 952 510 954 520" stroke="#228b22" stroke-width="1" fill="none"/>
        <path d="M 1100 525 Q 1102 515 1104 525" stroke="#228b22" stroke-width="1" fill="none"/>
        <path d="M 1150 518 Q 1152 508 1154 518" stroke="#228b22" stroke-width="1" fill="none"/>
    </g>
    
    <!-- Birds -->
    <g class="birds" opacity="0.6">
        <path d="M 350 200 Q 355 195 360 200" stroke="#333" stroke-width="2" fill="none"/>
        <path d="M 355 205 Q 360 200 365 205" stroke="#333" stroke-width="2" fill="none"/>
        
        <path d="M 750 180 Q 755 175 760 180" stroke="#333" stroke-width="2" fill="none"/>
        <path d="M 755 185 Q 760 180 765 185" stroke="#333" stroke-width="2" fill="none"/>
        
        <path d="M 450 160 Q 455 155 460 160" stroke="#333" stroke-width="2" fill="none"/>
        <path d="M 455 165 Q 460 160 465 165" stroke="#333" stroke-width="2" fill="none"/>
    </g>
</svg>
