<svg width="120" height="180" viewBox="0 0 120 180" xmlns="http://www.w3.org/2000/svg">
    <defs>
        <linearGradient id="skinGradient" x1="0%" y1="0%" x2="100%" y2="100%">
            <stop offset="0%" style="stop-color:#fdbcb4;stop-opacity:1" />
            <stop offset="100%" style="stop-color:#ea9085;stop-opacity:1" />
        </linearGradient>
        <linearGradient id="hairGradient" x1="0%" y1="0%" x2="100%" y2="100%">
            <stop offset="0%" style="stop-color:#8b4513;stop-opacity:1" />
            <stop offset="100%" style="stop-color:#654321;stop-opacity:1" />
        </linearGradient>
        <linearGradient id="clothesGradient" x1="0%" y1="0%" x2="100%" y2="100%">
            <stop offset="0%" style="stop-color:#4a90e2;stop-opacity:1" />
            <stop offset="100%" style="stop-color:#2e5bba;stop-opacity:1" />
        </linearGradient>
    </defs>
    
    <!-- Body -->
    <rect x="35" y="70" width="50" height="80" fill="url(#clothesGradient)" rx="10"/>
    
    <!-- Arms -->
    <rect x="20" y="75" width="15" height="40" fill="url(#clothesGradient)" rx="7"/>
    <rect x="85" y="75" width="15" height="40" fill="url(#clothesGradient)" rx="7"/>
    
    <!-- Hands -->
    <circle cx="27" cy="120" r="8" fill="url(#skinGradient)"/>
    <circle cx="93" cy="120" r="8" fill="url(#skinGradient)"/>
    
    <!-- Legs -->
    <rect x="40" y="150" width="15" height="25" fill="#333" rx="7"/>
    <rect x="65" y="150" width="15" height="25" fill="#333" rx="7"/>
    
    <!-- Shoes -->
    <ellipse cx="47" cy="175" rx="10" ry="4" fill="#000"/>
    <ellipse cx="72" cy="175" rx="10" ry="4" fill="#000"/>
    
    <!-- Head -->
    <circle cx="60" cy="35" r="25" fill="url(#skinGradient)"/>
    
    <!-- Hair -->
    <path d="M 35 25 Q 60 15 85 25 Q 80 35 75 30 Q 60 20 45 30 Q 40 35 35 25" fill="url(#hairGradient)"/>
    
    <!-- Eyes -->
    <circle cx="52" cy="32" r="3" fill="#333"/>
    <circle cx="68" cy="32" r="3" fill="#333"/>
    <circle cx="53" cy="31" r="1" fill="#fff"/>
    <circle cx="69" cy="31" r="1" fill="#fff"/>
    
    <!-- Nose -->
    <ellipse cx="60" cy="37" rx="2" ry="1" fill="#d4a574"/>
    
    <!-- Mouth -->
    <path d="M 55 42 Q 60 45 65 42" stroke="#333" stroke-width="1.5" fill="none"/>
    
    <!-- Sad expression overlay (hidden by default) -->
    <g class="sad-expression" opacity="0">
        <path d="M 55 45 Q 60 42 65 45" stroke="#333" stroke-width="1.5" fill="none"/>
        <path d="M 50 30 L 54 34" stroke="#333" stroke-width="1" fill="none"/>
        <path d="M 66 34 L 70 30" stroke="#333" stroke-width="1" fill="none"/>
    </g>
</svg>
