<svg width="110" height="170" viewBox="0 0 110 170" xmlns="http://www.w3.org/2000/svg">
    <defs>
        <linearGradient id="fatherSkinGradient" x1="0%" y1="0%" x2="100%" y2="100%">
            <stop offset="0%" style="stop-color:#fdbcb4;stop-opacity:1" />
            <stop offset="100%" style="stop-color:#ea9085;stop-opacity:1" />
        </linearGradient>
        <linearGradient id="fatherHairGradient" x1="0%" y1="0%" x2="100%" y2="100%">
            <stop offset="0%" style="stop-color:#333;stop-opacity:1" />
            <stop offset="100%" style="stop-color:#222;stop-opacity:1" />
        </linearGradient>
        <linearGradient id="fatherClothesGradient" x1="0%" y1="0%" x2="100%" y2="100%">
            <stop offset="0%" style="stop-color:#5a5a5a;stop-opacity:1" />
            <stop offset="100%" style="stop-color:#404040;stop-opacity:1" />
        </linearGradient>
    </defs>
    
    <!-- Body -->
    <rect x="30" y="65" width="50" height="85" fill="url(#fatherClothesGradient)" rx="10"/>
    
    <!-- Arms -->
    <rect x="15" y="70" width="18" height="45" fill="url(#fatherClothesGradient)" rx="9"/>
    <rect x="77" y="70" width="18" height="45" fill="url(#fatherClothesGradient)" rx="9"/>
    
    <!-- Hands -->
    <circle cx="24" cy="120" r="9" fill="url(#fatherSkinGradient)"/>
    <circle cx="86" cy="120" r="9" fill="url(#fatherSkinGradient)"/>
    
    <!-- Legs -->
    <rect x="35" y="150" width="18" height="30" fill="#333" rx="9"/>
    <rect x="57" y="150" width="18" height="30" fill="#333" rx="9"/>
    
    <!-- Shoes -->
    <ellipse cx="44" cy="165" rx="12" ry="5" fill="#000"/>
    <ellipse cx="66" cy="165" rx="12" ry="5" fill="#000"/>
    
    <!-- Head -->
    <circle cx="55" cy="35" r="28" fill="url(#fatherSkinGradient)"/>
    
    <!-- Hair -->
    <path d="M 27 25 Q 55 12 83 25 Q 78 35 73 30 Q 55 18 37 30 Q 32 35 27 25" fill="url(#fatherHairGradient)"/>
    
    <!-- Beard -->
    <path d="M 35 45 Q 55 55 75 45 Q 70 50 65 48 Q 55 52 45 48 Q 40 50 35 45" fill="url(#fatherHairGradient)"/>
    
    <!-- Eyes -->
    <circle cx="47" cy="32" r="3" fill="#333"/>
    <circle cx="63" cy="32" r="3" fill="#333"/>
    <circle cx="48" cy="31" r="1" fill="#fff"/>
    <circle cx="64" cy="31" r="1" fill="#fff"/>
    
    <!-- Nose -->
    <ellipse cx="55" cy="37" rx="2" ry="1" fill="#d4a574"/>
    
    <!-- Mouth -->
    <path d="M 50 43 Q 55 46 60 43" stroke="#333" stroke-width="1.5" fill="none"/>
    
    <!-- Protective gesture arms -->
    <g class="protective-gesture">
        <path d="M 24 120 Q 40 100 45 90" stroke="url(#fatherSkinGradient)" stroke-width="6" fill="none"/>
        <path d="M 86 120 Q 70 100 65 90" stroke="url(#fatherSkinGradient)" stroke-width="6" fill="none"/>
    </g>
</svg>
