<svg width="105" height="165" viewBox="0 0 105 165" xmlns="http://www.w3.org/2000/svg">
    <defs>
        <linearGradient id="friendSkinGradient" x1="0%" y1="0%" x2="100%" y2="100%">
            <stop offset="0%" style="stop-color:#fdbcb4;stop-opacity:1" />
            <stop offset="100%" style="stop-color:#ea9085;stop-opacity:1" />
        </linearGradient>
        <linearGradient id="friendHairGradient" x1="0%" y1="0%" x2="100%" y2="100%">
            <stop offset="0%" style="stop-color:#daa520;stop-opacity:1" />
            <stop offset="100%" style="stop-color:#b8860b;stop-opacity:1" />
        </linearGradient>
        <linearGradient id="friendClothesGradient" x1="0%" y1="0%" x2="100%" y2="100%">
            <stop offset="0%" style="stop-color:#27ae60;stop-opacity:1" />
            <stop offset="100%" style="stop-color:#1e8449;stop-opacity:1" />
        </linearGradient>
    </defs>
    
    <!-- Body -->
    <rect x="30" y="65" width="45" height="75" fill="url(#friendClothesGradient)" rx="10"/>
    
    <!-- Arms -->
    <rect x="17" y="70" width="16" height="42" fill="url(#friendClothesGradient)" rx="8"/>
    <rect x="72" y="70" width="16" height="42" fill="url(#friendClothesGradient)" rx="8"/>
    
    <!-- Hands -->
    <circle cx="25" cy="117" r="8" fill="url(#friendSkinGradient)"/>
    <circle cx="80" cy="117" r="8" fill="url(#friendSkinGradient)"/>
    
    <!-- Legs -->
    <rect x="35" y="140" width="16" height="28" fill="#2c3e50" rx="8"/>
    <rect x="54" y="140" width="16" height="28" fill="#2c3e50" rx="8"/>
    
    <!-- Shoes -->
    <ellipse cx="43" cy="160" rx="10" ry="4" fill="#000"/>
    <ellipse cx="62" cy="160" rx="10" ry="4" fill="#000"/>
    
    <!-- Head -->
    <circle cx="52" cy="33" r="26" fill="url(#friendSkinGradient)"/>
    
    <!-- Hair -->
    <path d="M 26 23 Q 52 8 78 23 Q 75 33 70 30 Q 52 15 34 30 Q 29 33 26 23" fill="url(#friendHairGradient)"/>
    
    <!-- Eyes -->
    <circle cx="45" cy="30" r="3" fill="#333"/>
    <circle cx="59" cy="30" r="3" fill="#333"/>
    <circle cx="46" cy="29" r="1" fill="#fff"/>
    <circle cx="60" cy="29" r="1" fill="#fff"/>
    
    <!-- Nose -->
    <ellipse cx="52" cy="36" rx="2" ry="1" fill="#d4a574"/>
    
    <!-- Mouth - friendly smile -->
    <path d="M 46 41 Q 52 46 58 41" stroke="#333" stroke-width="1.5" fill="none"/>
    
    <!-- Handshake gesture -->
    <g class="handshake-gesture">
        <path d="M 80 117 Q 90 110 95 105" stroke="url(#friendSkinGradient)" stroke-width="6" fill="none"/>
        <circle cx="95" cy="105" r="6" fill="url(#friendSkinGradient)"/>
    </g>
    
    <!-- Friendly eyebrows -->
    <path d="M 41 26 Q 45 24 49 26" stroke="#333" stroke-width="1" fill="none"/>
    <path d="M 55 26 Q 59 24 63 26" stroke="#333" stroke-width="1" fill="none"/>
</svg>
